<svg width="155" height="32" viewBox="0 0 155 32" fill="none" xmlns="http://www.w3.org/2000/svg">
<g filter="url(#filter0_f_15954_140710)">
<path d="M8.61995 27.46V30.52H0.819946V1H8.61995V4.06H3.87995V27.46H8.61995ZM20.8649 27.46V30.52H13.0649V1H20.8649V4.06H16.1249V27.46H20.8649ZM39.1179 22.72C37.4979 22.72 36.0679 22.48 34.8279 22C33.6079 21.5 32.6579 20.77 31.9779 19.81C31.2979 18.85 30.9579 17.69 30.9579 16.33C30.9579 14.99 31.2879 13.83 31.9479 12.85C32.6079 11.87 33.5479 11.11 34.7679 10.57C36.0079 10.03 37.4579 9.76 39.1179 9.76C39.5779 9.76 40.0179 9.79 40.4379 9.85C40.8779 9.91 41.3079 9.99 41.7279 10.09L49.2579 10.12V13.06C48.2379 13.08 47.1979 12.96 46.1379 12.7C45.0979 12.42 44.1779 12.12 43.3779 11.8L43.2879 11.59C43.9679 11.91 44.6079 12.31 45.2079 12.79C45.8079 13.25 46.2879 13.79 46.6479 14.41C47.0279 15.01 47.2179 15.71 47.2179 16.51C47.2179 17.81 46.8879 18.93 46.2279 19.87C45.5679 20.79 44.6279 21.5 43.4079 22C42.2079 22.48 40.7779 22.72 39.1179 22.72ZM44.1279 31.15V30.43C44.1279 29.51 43.8279 28.87 43.2279 28.51C42.6479 28.15 41.8479 27.97 40.8279 27.97H36.1779C35.2779 27.97 34.5179 27.9 33.8979 27.76C33.2979 27.62 32.8179 27.42 32.4579 27.16C32.0979 26.9 31.8379 26.59 31.6779 26.23C31.5179 25.89 31.4379 25.52 31.4379 25.12C31.4379 24.32 31.6979 23.72 32.2179 23.32C32.7379 22.9 33.4379 22.62 34.3179 22.48C35.1979 22.34 36.1679 22.31 37.2279 22.39L39.1179 22.72C37.8579 22.76 36.9179 22.87 36.2979 23.05C35.6979 23.21 35.3979 23.54 35.3979 24.04C35.3979 24.34 35.5179 24.58 35.7579 24.76C35.9979 24.92 36.3379 25 36.7779 25H41.6679C43.0079 25 44.1479 25.14 45.0879 25.42C46.0479 25.72 46.7779 26.21 47.2779 26.89C47.7779 27.59 48.0279 28.54 48.0279 29.74V31.15H44.1279ZM39.1179 19.9C39.9779 19.9 40.7279 19.76 41.3679 19.48C42.0279 19.2 42.5379 18.8 42.8979 18.28C43.2579 17.74 43.4379 17.1 43.4379 16.36C43.4379 15.6 43.2579 14.95 42.8979 14.41C42.5379 13.87 42.0379 13.46 41.3979 13.18C40.7579 12.88 39.9979 12.73 39.1179 12.73C38.2579 12.73 37.4979 12.88 36.8379 13.18C36.1779 13.46 35.6679 13.87 35.3079 14.41C34.9479 14.95 34.7679 15.6 34.7679 16.36C34.7679 17.1 34.9479 17.74 35.3079 18.28C35.6679 18.8 36.1679 19.2 36.8079 19.48C37.4679 19.76 38.2379 19.9 39.1179 19.9ZM51.8049 10.09H55.7049V25H51.8049V10.09ZM61.4349 13.3C60.3149 13.3 59.3449 13.52 58.5249 13.96C57.7049 14.38 57.0449 14.9 56.5449 15.52C56.0449 16.14 55.6949 16.74 55.4949 17.32L55.4649 15.67C55.4849 15.43 55.5649 15.08 55.7049 14.62C55.8449 14.14 56.0549 13.63 56.3349 13.09C56.6149 12.53 56.9849 12 57.4449 11.5C57.9049 10.98 58.4649 10.56 59.1249 10.24C59.7849 9.92 60.5549 9.76 61.4349 9.76V13.3ZM68.3149 3.55V6.97H63.785V3.55H68.3149ZM64.0849 10.09H67.9849V25H64.0849V10.09ZM71.8729 10.09H75.7729V25H71.8729V10.09ZM82.7029 9.76C83.6229 9.76 84.4729 9.88 85.2529 10.12C86.0329 10.36 86.7129 10.73 87.2929 11.23C87.8729 11.73 88.3229 12.37 88.6429 13.15C88.9629 13.91 89.1229 14.82 89.1229 15.88V25H85.2229V16.57C85.2229 15.31 84.9129 14.39 84.2929 13.81C83.6929 13.21 82.7029 12.91 81.3229 12.91C80.2829 12.91 79.3429 13.11 78.5029 13.51C77.6629 13.91 76.9829 14.42 76.4629 15.04C75.9429 15.64 75.643 16.27 75.563 16.93L75.5329 15.4C75.6329 14.7 75.8629 14.02 76.2229 13.36C76.5829 12.7 77.0629 12.1 77.6629 11.56C78.2829 11 79.0129 10.56 79.8529 10.24C80.6929 9.92 81.6429 9.76 82.7029 9.76ZM95.6929 9.76C96.6129 9.76 97.4629 9.88 98.2429 10.12C99.0229 10.36 99.7029 10.73 100.283 11.23C100.863 11.73 101.313 12.37 101.633 13.15C101.973 13.91 102.143 14.82 102.143 15.88V25H98.2429V16.57C98.2429 15.31 97.933 14.39 97.313 13.81C96.693 13.21 95.693 12.91 94.313 12.91C93.273 12.91 92.3329 13.11 91.4929 13.51C90.6529 13.91 89.9729 14.42 89.4529 15.04C88.9329 15.64 88.6429 16.27 88.5829 16.93L88.5229 15.31C88.6229 14.65 88.8629 13.99 89.2429 13.33C89.6229 12.67 90.1229 12.07 90.7429 11.53C91.3629 10.99 92.0829 10.56 92.9029 10.24C93.7429 9.92 94.6729 9.76 95.6929 9.76ZM114.472 25.36C112.592 25.36 110.932 25.06 109.492 24.46C108.072 23.86 106.962 22.99 106.162 21.85C105.362 20.69 104.962 19.27 104.962 17.59C104.962 15.91 105.362 14.49 106.162 13.33C106.962 12.15 108.072 11.26 109.492 10.66C110.932 10.06 112.592 9.76 114.472 9.76C116.352 9.76 117.992 10.06 119.392 10.66C120.812 11.26 121.922 12.15 122.722 13.33C123.522 14.49 123.922 15.91 123.922 17.59C123.922 19.27 123.522 20.69 122.722 21.85C121.922 22.99 120.812 23.86 119.392 24.46C117.992 25.06 116.352 25.36 114.472 25.36ZM114.472 22.36C115.512 22.36 116.442 22.18 117.262 21.82C118.102 21.44 118.762 20.9 119.242 20.2C119.722 19.48 119.962 18.61 119.962 17.59C119.962 16.57 119.722 15.7 119.242 14.98C118.762 14.24 118.112 13.68 117.292 13.3C116.472 12.92 115.532 12.73 114.472 12.73C113.432 12.73 112.492 12.92 111.652 13.3C110.843 13.6546 110.147 14.2255 109.642 14.95C109.162 15.67 108.922 16.55 108.922 17.59C108.922 18.61 109.162 19.48 109.642 20.2C110.122 20.9 110.782 21.44 111.622 21.82C112.462 22.18 113.412 22.36 114.472 22.36ZM134.041 27.43H138.811V4.06H134.041V1H141.841V30.49H134.041V27.43ZM146.346 27.43H151.116V4.06H146.346V1H154.146V30.49H146.346V27.43Z" fill="#373737"/>
</g>
<defs>
<filter id="filter0_f_15954_140710" x="0.519946" y="0.7" width="153.926" height="30.7499" filterUnits="userSpaceOnUse" color-interpolation-filters="sRGB">
<feFlood flood-opacity="0" result="BackgroundImageFix"/>
<feBlend mode="normal" in="SourceGraphic" in2="BackgroundImageFix" result="shape"/>
<feGaussianBlur stdDeviation="0.15" result="effect1_foregroundBlur_15954_140710"/>
</filter>
</defs>
</svg>
